<svg width="22" height="48" viewBox="0 0 22 48" fill="none" xmlns="http://www.w3.org/2000/svg">
<path d="M20.2541 6.73638V14.1195C20.2541 15.4372 20.0413 16.629 19.6157 17.6948C19.1902 18.78 18.5518 19.7004 17.7006 20.4562C16.8688 21.2313 15.8145 21.8224 14.5377 22.2293C13.2803 22.6556 11.8101 22.8688 10.1271 22.8688C8.44405 22.8688 6.96417 22.6556 5.6874 22.2293C4.42998 21.8224 3.37569 21.2313 2.52451 20.4562C1.69268 19.7004 1.06397 18.78 0.638382 17.6948C0.212794 16.629 -5.75003e-08 15.4372 0 14.1195L3.22171e-07 6.73637L20.2541 6.73638ZM3.39503 14.1195C3.39503 15.5535 3.81095 16.6871 4.64278 17.5204C5.49395 18.373 6.79006 18.7994 8.53111 18.7994H11.723C13.4641 18.7994 14.7505 18.373 15.5823 17.5204C16.4335 16.6871 16.8591 15.5535 16.8591 14.1195L16.8591 10.5733L3.39503 10.5733L3.39503 14.1195Z" fill="white"/>
<path d="M2.40119 2.32539C2.40119 1.53088 2.59464 0.939846 2.98153 0.552281C3.38778 0.184094 3.90042 -2.71056e-08 4.51945 0L5.04177 2.28704e-08C5.6608 4.99761e-08 6.17345 0.184094 6.57969 0.552281C6.98593 0.939847 7.18905 1.53088 7.18905 2.32539C7.18905 3.13928 6.98593 3.73032 6.57969 4.09851C6.17345 4.46669 5.6608 4.65079 5.04177 4.65079L4.51945 4.65079C3.90042 4.65079 3.38778 4.46669 2.98153 4.09851C2.59464 3.73032 2.40119 3.13928 2.40119 2.32539Z" fill="white"/>
<path d="M6.02836 27.365C6.02836 26.5704 6.22181 25.9794 6.60871 25.5918C7.01495 25.2237 7.52759 25.0396 8.14663 25.0396H8.66894C9.28798 25.0396 9.80062 25.2237 10.2069 25.5918C10.6131 25.9794 10.8162 26.5704 10.8162 27.365C10.8162 28.1788 10.6131 28.7699 10.2069 29.1381C9.80062 29.5063 9.28797 29.6904 8.66894 29.6904H8.14663C7.52759 29.6904 7.01495 29.5063 6.60871 29.1381C6.22181 28.7699 6.02836 28.1788 6.02836 27.365Z" fill="white"/>
<path d="M12.6782 2.32539C12.6782 1.53088 12.8716 0.939846 13.2585 0.552281C13.6648 0.184094 14.1774 -2.71056e-08 14.7964 0L15.3188 2.28704e-08C15.9378 4.99761e-08 16.4504 0.184094 16.8567 0.552281C17.2629 0.939847 17.466 1.53088 17.466 2.32539C17.466 3.13928 17.2629 3.73032 16.8567 4.09851C16.4504 4.46669 15.9378 4.65079 15.3188 4.65079L14.7964 4.65079C14.1774 4.65079 13.6648 4.46669 13.2585 4.09851C12.8716 3.73032 12.6782 3.13928 12.6782 2.32539Z" fill="white"/>
<path d="M17.2121 27.365C17.2121 26.5704 17.4056 25.9794 17.7925 25.5918C18.1987 25.2237 18.7114 25.0396 19.3304 25.0396H19.8527C20.4718 25.0396 20.9844 25.2237 21.3906 25.5918C21.7969 25.9794 22 26.5704 22 27.365C22 28.1788 21.7969 28.7699 21.3906 29.1381C20.9844 29.5063 20.4718 29.6904 19.8527 29.6904H19.3304C18.7114 29.6904 18.1987 29.5063 17.7925 29.1381C17.4056 28.7699 17.2121 28.1788 17.2121 27.365Z" fill="white"/>
<path d="M20.2541 31.8676V39.2507C20.2541 40.5684 20.0413 41.7602 19.6157 42.826C19.1902 43.9112 18.5518 44.8317 17.7006 45.5874C16.8688 46.3625 15.8145 46.9536 14.5377 47.3605C13.2803 47.7868 11.8101 48 10.1271 48C8.44405 48 6.96417 47.7868 5.6874 47.3605C4.42998 46.9536 3.37569 46.3625 2.52451 45.5874C1.69268 44.8317 1.06397 43.9112 0.638382 42.826C0.212794 41.7602 -5.75003e-08 40.5684 0 39.2507L3.22171e-07 31.8676H20.2541ZM3.39503 39.2507C3.39503 40.6847 3.81095 41.8183 4.64278 42.6516C5.49395 43.5042 6.79006 43.9306 8.53111 43.9306H11.723C13.4641 43.9306 14.7505 43.5042 15.5823 42.6516C16.4335 41.8183 16.8591 40.6847 16.8591 39.2507L16.8591 35.7045H3.39503L3.39503 39.2507Z" fill="white"/>
</svg>
